<svg xmlns="http://www.w3.org/2000/svg" viewBox="0 0 111.83 93.56"><defs><linearGradient id="ac7028c69-dbe4-4c59-8f12-0c3c87d14095" x1="18.64" y1="11.9" x2="85.78" y2="79.04" gradientUnits="userSpaceOnUse"><stop offset="0" stop-color="#ffb2c2"/><stop offset="1" stop-color="#f85e8a"/></linearGradient></defs><g style="isolation:isolate"><g><path d="M15.5 30.52c-8.8 6.16-16.89 4.55-5.95-9.12C21.47 6.51 44.36-3 68.22 1.63c24.69 4.78 42.25 34.31 25.28 66.81s-66.88 31.71-77.37 7.68c-10.87-24.89 5.7-43.21 21.22-47.41 17.83-4.83 26.36 3.08 17.69 11S48.11 50.5 52.46 53c5.85 3.37 4.12 13.38-6.44 10.65-3.78-1-2.76-4.57-1.27-19.23 1.06-10.46-15-15-15.17-2.54s0 25.83 2.53 28.72 19.86 9 31.6 1.62 8.57-19.68 4.06-22.57-4.82-3.08-.54-5.78c6.4-4 11.1-15.88.27-22.93-10.33-6.7-29.79-5.94-52 9.58z" fill="url(#ac7028c69-dbe4-4c59-8f12-0c3c87d14095)"/><path d="M92.07 76.24c1.53-1.75 11.39-1.17 8.9 4.56s-11.08-2.06-8.9-4.56z" fill="#ab8eeb" style="mix-blend-mode:multiply"/><path d="M89.14 81.31c2.06-.86 5.93 4.18 1.25 5.11-1.91.39-3.47-4.17-1.25-5.11z" fill="#f757af" style="mix-blend-mode:multiply"/><path d="M8.05 42.16c-11.46 5.14-9.32 19-2 8.64 5.18-7.45 7.67-11.19 2-8.64z" fill="#ffbd88" style="mix-blend-mode:multiply"/><path d="M111.69 44.82c-1.1-10.27-7.46-18.09-16.7-23.2 6.76 12.41 7.72 29.17-1.49 46.82a46.64 46.64 0 0 1-2.59 4.35c12.96-5.42 22.18-14.86 20.78-27.97z" fill="#f757af" style="mix-blend-mode:multiply"/><path d="M95 21.62c-17-9.41-43.77-9.66-65.45.79C45.74 15 59.41 15.7 67.5 21c10.83 7.05 6.13 18.91-.27 22.93-4.28 2.7-4 2.89.54 5.78s7.67 15.17-4.06 22.57C56 77.12 45.77 76.1 39 74c14.48 6 36 5.42 51.9-1.23a46.64 46.64 0 0 0 2.59-4.35c9.22-17.63 8.26-34.42 1.51-46.8z" fill="#f757af" style="mix-blend-mode:multiply"/><path d="M16.13 76.12c-5-11.52-4.18-21.63-.28-29.58C9.41 54.37 5.3 64.92 8.54 74.63c1.94 5.82 7.81 9.55 15.27 11.13a24.69 24.69 0 0 1-7.68-9.64z" fill="#ab8eeb" style="mix-blend-mode:multiply"/><path d="M70.68 64.47a17.33 17.33 0 0 1-7 7.76C52 79.63 34.64 73.5 32.11 70.61s-2.71-16.26-2.53-28.72c.06-4.15 1.88-6.41 4.25-7.2-5.68.7-12.63 5.34-18 11.85-3.9 8-4.75 18.06.28 29.58a24.69 24.69 0 0 0 7.68 9.64c16.28 3.43 40.07-3.42 46.89-21.29z" fill="#ab8eeb" style="mix-blend-mode:multiply"/><path d="M51.58.61a51.86 51.86 0 0 0-19.32.67C13.42 5.4 5.54 16.54 9.07 22l.48-.61C18.65 10 34.14 1.81 51.58.61z" fill="#ffbd88" style="mix-blend-mode:multiply"/><path d="M51.58.61C34.14 1.81 18.65 10 9.55 21.4l-.48.6c2.23 3.47 9 4.67 20.47.4C45.74 15 59.42 15.7 67.5 21c6 3.93 7.25 9.35 6 14.08C86.2 23.66 74.24 4.29 51.58.61z" fill="#ffbd88" style="mix-blend-mode:multiply"/></g></g></svg>